<svg width="29" height="30" viewBox="0 0 29 30" fill="none" xmlns="http://www.w3.org/2000/svg">
<path d="M0.369141 12.6699C0.369141 14.2812 0.671875 15.7949 1.27734 17.2109C1.88281 18.6172 2.72266 19.8574 3.79688 20.9316C4.87109 22.0059 6.11133 22.8457 7.51758 23.4512C8.93359 24.0566 10.4473 24.3594 12.0586 24.3594C13.3281 24.3594 14.5391 24.1641 15.6914 23.7734C16.8438 23.3828 17.8984 22.8457 18.8555 22.1621L26.0625 29.3838C26.2383 29.5498 26.4287 29.6719 26.6338 29.75C26.8486 29.8379 27.0732 29.8818 27.3076 29.8818C27.6396 29.8818 27.9326 29.8037 28.1865 29.6475C28.4404 29.501 28.6357 29.2959 28.7725 29.0322C28.9189 28.7686 28.9922 28.4756 28.9922 28.1533C28.9922 27.9189 28.9482 27.6992 28.8604 27.4941C28.7822 27.2891 28.665 27.1084 28.5088 26.9521L21.3457 19.7451C22.0977 18.7686 22.6836 17.6797 23.1035 16.4785C23.5332 15.2773 23.748 14.0078 23.748 12.6699C23.748 11.0586 23.4453 9.5498 22.8398 8.14355C22.2344 6.72754 21.3945 5.48242 20.3203 4.4082C19.2461 3.33398 18.001 2.49414 16.585 1.88867C15.1787 1.2832 13.6699 0.980469 12.0586 0.980469C10.4473 0.980469 8.93359 1.2832 7.51758 1.88867C6.11133 2.49414 4.87109 3.33398 3.79688 4.4082C2.72266 5.48242 1.88281 6.72754 1.27734 8.14355C0.671875 9.5498 0.369141 11.0586 0.369141 12.6699ZM2.87402 12.6699C2.87402 11.4004 3.1084 10.2139 3.57715 9.11035C4.05566 7.99707 4.71484 7.02051 5.55469 6.18066C6.4043 5.33105 7.38086 4.67188 8.48438 4.20312C9.59766 3.72461 10.7891 3.48535 12.0586 3.48535C13.3281 3.48535 14.5146 3.72461 15.6182 4.20312C16.7314 4.67188 17.708 5.33105 18.5479 6.18066C19.3877 7.02051 20.0469 7.99707 20.5254 9.11035C21.0039 10.2139 21.2432 11.4004 21.2432 12.6699C21.2432 13.9395 21.0039 15.1309 20.5254 16.2441C20.0469 17.3477 19.3877 18.3193 18.5479 19.1592C17.708 19.999 16.7314 20.6582 15.6182 21.1367C14.5146 21.6152 13.3281 21.8545 12.0586 21.8545C10.7891 21.8545 9.59766 21.6152 8.48438 21.1367C7.38086 20.6582 6.4043 19.999 5.55469 19.1592C4.71484 18.3193 4.05566 17.3477 3.57715 16.2441C3.1084 15.1309 2.87402 13.9395 2.87402 12.6699Z" fill="#A3A7AC"/>
</svg>
